<?xml version="1.0" encoding="UTF-8"?>
<svg version="1.1" xmlns="http://www.w3.org/2000/svg" width="76" height="45">
<path d="M0 0 C7 8.75 7 8.75 7 13 C7.66 13 8.32 13 9 13 C9.2475 12.154375 9.495 11.30875 9.75 10.4375 C11.13973627 6.61572526 12.91120838 3.48131937 15 0 C19.0166908 3.54552473 20.71041253 8.23518284 23 13 C26.465 6.565 26.465 6.565 30 0 C32.77391054 2.77391054 33.95795023 4.57311058 35.63671875 8.015625 C36.37390137 9.51186401 36.37390137 9.51186401 37.12597656 11.03833008 C37.89893066 12.62810669 37.89893066 12.62810669 38.6875 14.25 C42.83950528 22.69742279 47.09844499 31.04293458 51.671875 39.26953125 C53 42 53 42 53 45 C28.25 45 3.5 45 -22 45 C-20.76663291 41.29989872 -19.74269181 38.23513295 -18.04467773 34.84643555 C-17.6676622 34.08932785 -17.29064667 33.33222015 -16.90220642 32.5521698 C-16.29899315 31.35652153 -16.29899315 31.35652153 -15.68359375 30.13671875 C-15.26707047 29.3041304 -14.85054718 28.47154205 -14.42140198 27.61372375 C-13.54495818 25.8638451 -12.66658002 24.11493409 -11.78637695 22.36694336 C-10.43431753 19.68117826 -9.088765 16.99222827 -7.74414062 14.30273438 C-6.89100371 12.60137254 -6.03750101 10.90019407 -5.18359375 9.19921875 C-4.57734413 7.98838875 -4.57734413 7.98838875 -3.95884705 6.75309753 C-1.1160858 1.1160858 -1.1160858 1.1160858 0 0 Z " fill="#6665FE" transform="translate(23,0)"/>
<path d="M0 0 C3.41420073 4.34623828 5.60612668 9.0412624 8 14 C8.63729575 15.25948174 9.27535974 16.51857495 9.9140625 17.77734375 C10.56856664 19.10113849 11.22221562 20.42535638 11.875 21.75 C12.19758789 22.37559814 12.52017578 23.00119629 12.85253906 23.64575195 C14.93067224 27.94059854 15.44444155 30.45392816 14 35 C11.525 39.95 11.525 39.95 9 45 C-1.23 45 -11.46 45 -22 45 C-20.76663291 41.29989872 -19.74269181 38.23513295 -18.04467773 34.84643555 C-17.6676622 34.08932785 -17.29064667 33.33222015 -16.90220642 32.5521698 C-16.29899315 31.35652153 -16.29899315 31.35652153 -15.68359375 30.13671875 C-15.26707047 29.3041304 -14.85054718 28.47154205 -14.42140198 27.61372375 C-13.54495818 25.8638451 -12.66658002 24.11493409 -11.78637695 22.36694336 C-10.43431753 19.68117826 -9.088765 16.99222827 -7.74414062 14.30273438 C-6.89100371 12.60137254 -6.03750101 10.90019407 -5.18359375 9.19921875 C-4.57734413 7.98838875 -4.57734413 7.98838875 -3.95884705 6.75309753 C-1.1160858 1.1160858 -1.1160858 1.1160858 0 0 Z " fill="#E23547" transform="translate(23,0)"/>
<path d="M0 0 C2.6763478 2.37832333 4.07334943 4.80975036 5.63671875 8.015625 C6.37390137 9.51186401 6.37390137 9.51186401 7.12597656 11.03833008 C7.89893066 12.62810669 7.89893066 12.62810669 8.6875 14.25 C12.83950528 22.69742279 17.09844499 31.04293458 21.671875 39.26953125 C23 42 23 42 23 45 C18.05 45 13.1 45 8 45 C6.41561407 42.00055183 4.83246546 39.00046119 3.25 36 C2.8065625 35.16082031 2.363125 34.32164063 1.90625 33.45703125 C1.02210413 31.77975453 0.14252706 30.10006134 -0.73242188 28.41796875 C-1.54417393 26.86951105 -2.37221473 25.32941794 -3.22070312 23.80078125 C-5.42810686 19.71299656 -6.71826849 16.75852874 -6 12 C-4.6875 8.7890625 -4.6875 8.7890625 -3 5.625 C-2.443125 4.56539063 -1.88625 3.50578125 -1.3125 2.4140625 C-0.879375 1.61742188 -0.44625 0.82078125 0 0 Z " fill="#5555FF" transform="translate(53,0)"/>
<path d="M0 0 C0.66 0 1.32 0 2 0 C3.04063021 1.86408542 4.05677915 3.74185071 5.0625 5.625 C5.63097656 6.66914063 6.19945313 7.71328125 6.78515625 8.7890625 C8.54776173 13.44778182 7.73267809 16.29442149 5.80859375 20.7734375 C4.5390625 23.18229167 3.26953125 25.59114583 2 28 C-3.28 28 -8.56 28 -14 28 C-12.6080434 25.01896876 -11.21155304 22.04019926 -9.8125 19.0625 C-9.42513672 18.23169922 -9.03777344 17.40089844 -8.63867188 16.54492188 C-5.97904088 10.89595357 -3.10201189 5.41848657 0 0 Z " fill="#F33D48" transform="translate(30,17)"/>
<path d="M0 0 C4.52483795 4.17677349 7.80484222 8.9107045 9 15 C7.5939894 20.54392782 4.19740312 25.33765123 1 30 C-2.2107419 27.32920269 -3.50977252 24.07806613 -5.1875 20.3125 C-5.71730469 19.13300781 -6.24710938 17.95351563 -6.79296875 16.73828125 C-7.19128906 15.83464844 -7.58960937 14.93101563 -8 14 C-7.34 13.67 -6.68 13.34 -6 13 C-5.71125 12.13375 -5.4225 11.2675 -5.125 10.375 C-3.83920974 6.51762922 -2.08796344 3.47993907 0 0 Z " fill="#A29FFC" transform="translate(38,0)"/>
<path d="M0 0 C3.69121249 4.54636142 5.65004247 9.66496129 8 15 C3.38 15 -1.24 15 -6 15 C-4.72936448 11.18809343 -3.51749676 7.73849288 -1.875 4.125 C-1.52179687 3.34382813 -1.16859375 2.56265625 -0.8046875 1.7578125 C-0.53914063 1.17773438 -0.27359375 0.59765625 0 0 Z " fill="#9339A5" transform="translate(38,30)"/>
</svg>
